<?xml version="1.0" encoding="utf-8"?>
<!-- Generator: Adobe Illustrator 17.0.0, SVG Export Plug-In . SVG Version: 6.00 Build 0)  -->
<!DOCTYPE svg PUBLIC "-//W3C//DTD SVG 1.1//EN" "http://www.w3.org/Graphics/SVG/1.1/DTD/svg11.dtd">
<svg version="1.1"
	 id="svg10" xmlns:dc="http://purl.org/dc/elements/1.1/" xmlns:cc="http://creativecommons.org/ns#" xmlns:rdf="http://www.w3.org/1999/02/22-rdf-syntax-ns#" xmlns:svg="http://www.w3.org/2000/svg" xmlns:sodipodi="http://sodipodi.sourceforge.net/DTD/sodipodi-0.dtd" xmlns:inkscape="http://www.inkscape.org/namespaces/inkscape" sodipodi:docname="logo2.svg" inkscape:version="0.92.2 (5c3e80d, 2017-08-06)"
	 xmlns="http://www.w3.org/2000/svg" xmlns:xlink="http://www.w3.org/1999/xlink" x="0px" y="0px" width="812px" height="299px"
	 viewBox="0 0 812 299" enable-background="new 0 0 812 299" xml:space="preserve">
<g id="text">
	<path fill="#FFFFFF" d="M118.2,212.2c3.3-11.3,2-32.2-2.5-40.9c-4.4-8.4-7.9-11.7-17.1-15.9c-10.2-4.7-21.8-6.1-51.6-6.1H21.3v62
		v62H36h14.7v-16.7V240h11C94.6,239.9,112.7,231,118.2,212.2z M82.4,211.5c-3.1,1.7-8.5,2.5-18.1,2.9L50.7,215v-20.3v-20.3l13.7,0.6
		c20.2,0.8,26.3,5.3,26.3,19.1C90.7,202.5,87.7,208.7,82.4,211.5z"/>
	<polygon fill="#FFFFFF" points="28,64.7 28,2.7 14,2.7 0,2.7 0,64.7 0,126.7 14,126.7 28,126.7 	"/>
	<path fill="#FFFFFF" d="M783.2,123c-1.3-2-8.2-11.9-15.4-21.9l-13-18.2l3.8-1.6c6-2.5,14-12.1,16.5-19.9c3.3-9.8,2.4-30.5-1.6-38.1
		C765,6.7,751.9,2.8,705,2.7h-29v62v62h14.7h14.7v-19.3V88h9h9l13.3,19.3l13.3,19.3h17.9h17.9L783.2,123z M737.7,61.2L737.7,61.2
		c-2.8,0.8-11.2,1.4-18.7,1.4h-13.7V45.3V28H719c22.9,0,29,3.5,29,16.5C748,53.6,744.5,59.4,737.7,61.2z"/>
	<path fill="#FFFFFF" d="M189.9,150l-14-0.4l-14-0.4l-26.3,61c-14.5,33.6-26.3,61.5-26.3,62s6.8,1,15.1,1h15.1l5.3-12.3l5.3-12.3
		h25.7h25.7l5.1,12l5.1,12l15.4,0.4c8.5,0.2,15.4-0.1,15.4-0.7s-11.9-28.3-26.4-61.7L189.9,150z M176.1,221.3
		c-7.4,0-13.4-0.3-13.4-0.7c0-1.7,12.5-29.9,13.2-29.9c0.6,0,8.7,18,13.2,29.5C189.4,220.8,183.5,221.3,176.1,221.3z"/>
	<path fill="#FFFFFF" d="M336.5,61.1l4.7-2.2c2.6-1.2,4.9-2.6,5.2-3.2c1.2-2.8,30.4-9.2,42.3-9.3h5.4l7.6-13.5
		c4.2-7.4,9.8-17.2,12.4-21.8l4.8-8.3H403h-16L374.7,24C368,35.7,362,45.6,361.4,45.9c-0.6,0.3-6.7-9.2-13.6-21.3L335.3,2.8
		l-15.7-0.1C311,2.7,304,3.1,304,3.5s7.3,13.6,16.3,29.2L336.5,61.1z"/>
	<path fill="#FFFFFF" d="M222,102.3c-9.1-0.7-16.5-4-27.1-11.9l-7.1-5.3l-2.5,3.1c-1.4,1.7-5.2,6.4-8.5,10.4
		c-5.8,6.9-5.9,7.4-3.8,9.8c3.7,4.2,17.3,12.5,25.4,15.5c4.1,1.6,11.1,3.3,15.5,3.9c23.9,3.2,44.2-4.7,52.3-20.4
		c2.9-5.5,3.6-8.8,3.6-16.3c0.1-22.2-9.3-31.4-41.2-40.5c-17.3-4.9-21.2-7.3-21.8-13.4c-0.5-5.5,3.7-10.3,10.1-11.5
		c6.3-1.2,20.9,2.6,28.8,7.5c3.5,2.2,6.9,4,7.4,4s4.2-4.5,8-10.1c7.9-11.4,7.9-11.5-2.5-17.1c-28-15.2-62.6-12.5-76,6
		c-7.9,10.9-8.3,31.3-0.9,42.4c4.4,6.6,16.6,13,35.2,18.2c16.8,4.8,21.3,7.1,22.5,11.9C241.8,98.2,235.2,103.4,222,102.3z"/>
	<polygon fill="#FFFFFF" points="73.3,28 73.3,77.3 73.3,126.7 87.3,126.7 101.3,126.7 101.3,77.3 101.3,28 118.7,28 136,28 
		136,15.3 136,2.7 87.3,2.7 38.7,2.7 38.7,15.3 38.7,28 56,28 	"/>
	<path fill="#FFFFFF" d="M139.8,38.9c-2.1,4.9-3.8,9.3-3.8,9.7s3.5,0.7,7.8,0.7h7.8l8.2-12.1c7.3-10.8,8.2-12.8,8.2-18.8
		c0-8-1.5-11.2-6.6-13.8c-7.7-4-17.4-1.7-20.8,4.8c-2.7,5.2-2.4,13.6,0.6,17.3C143.6,29.8,143.6,30,139.8,38.9z"/>
	<path fill="#FFFFFF" d="M577.2,148.7c-23.7-5.6-47.7,0.9-64.1,17.3c-24.3,24.3-24.3,65.6-0.1,89.9c7.9,7.9,20.2,15.2,29.3,17.3
		c2.7,0.6,10.8,1.2,17.9,1.3c20.9,0.2,34.9-5.6,48.8-20.3c7.7-8.1,11.5-15,14.3-25.8c2.5-9.5,2.5-25.6,0.2-34.4
		C617.5,171.7,599.4,154,577.2,148.7z M585.1,238.5c-3,3.2-8,6.9-11,8.2l0,0c-7.9,3.6-19.7,3.3-28.1-0.6
		c-28.2-13.1-28.2-55.7-0.1-70.6c8.3-4.4,22.1-4.1,30.3,0.7C598.3,189.3,602.7,220.2,585.1,238.5z"/>
	<path fill="#FFFFFF" d="M479.6,149.3c-1,0-2.5,4-3.8,10.3c-3,14.5-8.1,24.9-17.7,35.9l-4.8,5.6v36.1v36.1h14h14v-62
		C481.3,162,481,149.3,479.6,149.3z"/>
	<path fill="#FFFFFF" d="M533.2,94.9c6.4-12.6,8.5-30.8,5.3-45.9c-3.7-17.3-17.3-34.6-33.4-42.2C471.8-8.9,431.4,4,416.2,35.2
		c-6.4,13-6.2,13.9,3,16.8c4.3,1.3,8.2,2.9,8.7,3.5c1.3,1.8,10.5,5.6,11.3,4.8c0.4-0.4,0.8-2.1,0.8-3.6c0-4.7,6-15.8,11.3-21
		c7.5-7.4,13.2-9.7,24-9.7c7.8,0,10.4,0.6,15.5,3.6c6.9,4.1,11.9,9.4,16.2,17.5c4.1,7.7,4.2,25.5,0.1,34.2
		c-5.7,12.1-18.2,21.2-29.3,21.3h-5.4l2.3,9c1.3,4.9,2.4,10.6,2.4,12.7c0.1,3.4,0.5,3.7,5.3,3.7c7.3,0,20.2-4.3,28-9.2
		C518.7,113.5,529.5,102.2,533.2,94.9z"/>
	<path fill="#FFFFFF" d="M657.3,85.3c0.8-4.8,1.4-25.3,1.4-45.7v-37H644h-14.7V40c0,22.5-0.6,39.7-1.5,43.2
		c-1.8,7.1-8.2,15.1-14.1,17.6c-9.8,4.1-22,0.4-28-8.6c-4.9-7.2-5.8-15.8-5.8-53.7V2.7h-14.1h-14.1l0.4,44.3l0.4,44.3l3.8,8.3
		c5.8,12.5,16.7,21.9,30.8,26.6l0,0c3.5,1.1,10.5,1.6,20,1.4c13-0.3,15.6-0.8,22.6-4.2C645.1,116.1,654.4,103.1,657.3,85.3z"/>
	<path fill="#FFFFFF" d="M455.7,96.3c-6-9.5-16-19.7-25.6-25.9c-24.5-15.9-61.1-15.9-85.5,0c-9.5,6.2-19.5,16.3-25.6,25.9
		c-14.8,23.5-14.8,59.9,0,83.4c10.1,16.1,26.2,28.7,43.6,34.3c14.5,4.7,34.4,4.7,49.1,0.1c24.6-7.8,43.9-27.1,51.6-51.6
		C470.1,141.1,466.9,114.1,455.7,96.3z M445.6,175.4c-8.4,12.9-20.9,22.9-34.9,27.9l0,0c-12.7,4.5-34,4.5-46.6,0
		c-20-7.2-36.6-24.4-42.8-44.6c-3.7-11.9-3.7-29.6,0-41.4c9-29.2,35.1-48.1,66.1-48.1c24.8,0,44.6,10.7,58.2,31.4
		C459.9,122.5,459.9,153.4,445.6,175.4z"/>
	<path fill="#FFFFFF" d="M294.8,197.5c-19.3-5.4-24.6-9.8-21.5-17.9c2.6-6.9,12.4-8.9,26.3-5.4c3.1,0.8,3.4,0.6,2.5-1.6
		c-0.6-1.4-2.1-7.6-3.4-13.9l-2.4-11.3l-11.8,0.1c-14.9,0.1-25.9,4.5-33.8,13.5c-8.9,10.1-10.7,29.5-3.9,42
		c5.4,9.8,13.6,14.2,42.8,22.5c16.4,4.7,21.1,11.9,13.1,20c-3.4,3.4-4.9,3.9-11.7,3.9c-9.1,0-21.4-5.2-30.8-12.9
		c-3.2-2.7-6.3-4.2-6.9-3.6c-5.7,6-16,19.9-15.6,21.1c0.3,0.8,5,4.5,10.6,8.2c10.7,7.2,20.8,11,32.9,12.6l0,0
		c10.3,1.3,22.1,0.1,30.8-3c9.4-3.4,20.4-14,22.5-21.6c2.5-9.2,1.8-21.9-1.7-29.3C327.8,209.7,318.7,204.2,294.8,197.5z"/>
	<path fill="#FFFFFF" d="M432.2,218.3c-1.7,0.2-3.9,1.2-4.9,2.2s-5.9,2.9-10.9,4.1c-14,3.6-13.1,3-10.1,6.4
		c5.6,6.2,4.8,12.7-2.1,16.2c-9.2,4.8-23.2,1.4-38-9.1l-8.6-6.1l-8.3,10.2c-9.6,11.8-9.6,11.7,2.5,20c9.7,6.6,20.8,11,31.6,12.4
		c23.3,3.1,42.5-4,52-19.2c3.7-5.9,4-7.6,4-18C439.3,224,437,217.8,432.2,218.3z"/>
	<polygon fill="#FFFFFF" points="725.4,149.3 725,188.2 724.7,227 695.3,188.5 666,150 652.3,149.6 638.7,149.2 638.7,211.3 
		638.7,273.3 653.3,273.3 668,273.3 668.3,236.8 668.7,200.2 696.4,236.8 724.1,273.3 738.7,273.3 753.3,273.3 753.3,211.3 
		753.3,149.3 739.4,149.3 	"/>
	<path fill="#FFFFFF" d="M421.5,132c-1.6,0-3.8,2.1-5.9,5.7c-3.7,6.2-10.3,13-10.3,10.6c0-0.9,1.2-4.7,2.7-8.6
		c3.3-8.7,3.3-10.3,0.1-10.3c-1.9,0-3.3,1.9-5.3,7.4c-1.5,4.1-2.8,7.8-2.8,8.3c-0.1,1.6-5.3,7.4-6.1,6.6c-1.5-1.5,1.4-8.3,8.3-19.7
		c8-13.3,8.7-16,4.1-16c-2.6,0-4.3,2.4-10.7,15c-4.2,8.3-7.6,16.8-7.6,18.9c0,3.1-0.3,3.6-1.6,2.3c-1.3-1.3-1.2-2.9,0.1-7.3
		c3.4-11.4,3.4-11.7,0.4-11.7c-1.6,0-2.8,0.5-2.9,1c0,0.6-2.5,3.7-5.5,7l-5.4,6l4.2-7.7c2.3-4.2,3.8-8.3,3.4-9
		c-1.2-1.9-4.1-1.5-6,0.7c-1.8,2.2-8,2.8-8,0.7c0-2.5-5.2-4.2-8-2.7c-6.8,3.6-12.1,20.7-7.8,25.1c4.4,4.4,11.6-0.3,14.8-9.7
		c1-2.9,2.5-5.4,3.3-5.7c1-0.3,0.8,1.2-0.5,4.4c-2.9,6.9-2.1,11.8,2.1,12.4c2.4,0.3,4.2-0.6,6.3-3.3c2.7-3.4,3-3.5,3-1.1
		c0,3.4,2.4,5.9,5.6,5.9c1.3,0,2.4-0.7,2.4-1.6c0-1.2,0.4-1.2,1.6,0c2.1,2.1,7.1,2,8.9-0.2c0.9-1,2.9-1.5,4.8-1.2
		c1.8,0.4,4.3-0.2,5.5-1.2c2-1.6,2.1-1.5,1.2,1.5c-0.6,1.8-2.8,7.4-5,12.4s-3.6,10-3.2,11c0.8,2,3.3,2.4,5.6,0.9
		c0.8-0.5,2-3.1,2.5-5.6c0.6-2.6,2.1-7.1,3.4-10s2.8-7.5,3.2-10.2c0.4-2.7,2.3-7.7,4.1-11.1C424.7,134.6,424.9,132,421.5,132z
		 M361.1,140.7c-1.5,5.3-5.8,10.8-7,8.9c-0.5-0.8,0-3.4,1-5.8C359.3,134.2,363.6,132,361.1,140.7z"/>
</g>
</svg>
